<svg width="120" height="90" viewBox="0 0 120 90" fill="none" xmlns="http://www.w3.org/2000/svg">
  <defs>
    <linearGradient id="gp-card" x1="14" y1="16" x2="56" y2="76" gradientUnits="userSpaceOnUse">
      <stop stop-color="#99F6E4"/>
      <stop offset="1" stop-color="#14B8A6"/>
    </linearGradient>
    <linearGradient id="gp-user" x1="66" y1="22" x2="108" y2="68" gradientUnits="userSpaceOnUse">
      <stop stop-color="#67E8F9"/>
      <stop offset="1" stop-color="#0891B2"/>
    </linearGradient>
  </defs>

  <rect x="14" y="16" width="40" height="58" rx="10" fill="url(#gp-card)" stroke="#0F766E" stroke-width="2.2"/>
  <path d="M22 31L24.8 33.8L30.2 28.4" stroke="#ECFEFF" stroke-width="2.4" stroke-linecap="round" stroke-linejoin="round"/>
  <rect x="32" y="28" width="14" height="4.5" rx="2.25" fill="#CCFBF1"/>
  <path d="M22 43L24.8 45.8L30.2 40.4" stroke="#ECFEFF" stroke-width="2.4" stroke-linecap="round" stroke-linejoin="round"/>
  <rect x="32" y="40" width="14" height="4.5" rx="2.25" fill="#CCFBF1"/>
  <path d="M22 55L24.8 57.8L30.2 52.4" stroke="#ECFEFF" stroke-width="2.4" stroke-linecap="round" stroke-linejoin="round"/>
  <rect x="32" y="52" width="14" height="4.5" rx="2.25" fill="#CCFBF1"/>

  <rect x="66" y="22" width="40" height="46" rx="12" fill="url(#gp-user)" stroke="#0E7490" stroke-width="2.2"/>
  <circle cx="86" cy="38" r="7" fill="#E0F2FE"/>
  <path d="M76 56C78.8 51.6 83 49.4 86 49.4C89 49.4 93.2 51.6 96 56" stroke="#E0F2FE" stroke-width="2.4" stroke-linecap="round"/>

  <path d="M56 45H64" stroke="#0F766E" stroke-width="2.4" stroke-linecap="round"/>
  <circle cx="64" cy="45" r="8" fill="#FEF9C3" stroke="#CA8A04" stroke-width="2.2"/>
  <path d="M60.5 45L63 47.5L68 42.5" stroke="#A16207" stroke-width="2.2" stroke-linecap="round" stroke-linejoin="round"/>
</svg>
