<svg width="120" height="90" viewBox="0 0 120 90" fill="none" xmlns="http://www.w3.org/2000/svg">
  <defs>
    <linearGradient id="sn-source" x1="14" y1="24" x2="44" y2="70" gradientUnits="userSpaceOnUse">
      <stop stop-color="#60A5FA"/>
      <stop offset="1" stop-color="#2563EB"/>
    </linearGradient>
    <linearGradient id="sn-result" x1="60" y1="14" x2="106" y2="76" gradientUnits="userSpaceOnUse">
      <stop stop-color="#C4B5FD"/>
      <stop offset="1" stop-color="#7C3AED"/>
    </linearGradient>
  </defs>

  <rect x="14" y="24" width="28" height="40" rx="8" fill="url(#sn-source)" stroke="#1E3A8A" stroke-width="2.2"/>
  <rect x="19" y="33" width="16" height="3.8" rx="1.9" fill="#DBEAFE"/>
  <rect x="19" y="42" width="12" height="3.8" rx="1.9" fill="#BFDBFE"/>
  <rect x="19" y="51" width="14" height="3.8" rx="1.9" fill="#BFDBFE"/>

  <path d="M46 44H56" stroke="#7C3AED" stroke-width="2.6" stroke-linecap="round"/>
  <path d="M52 39L58 44L52 49" stroke="#7C3AED" stroke-width="2.6" stroke-linecap="round" stroke-linejoin="round"/>

  <path d="M66 14H98L106 22V72C106 77.5228 101.523 82 96 82H66C60.4772 82 56 77.5228 56 72V24C56 18.4772 60.4772 14 66 14Z" fill="url(#sn-result)" stroke="#5B21B6" stroke-width="2.2"/>
  <path d="M98 14V20C98 21.6569 99.3431 23 101 23H106" fill="#EDE9FE"/>
  <path d="M98 14V20C98 21.6569 99.3431 23 101 23H106" stroke="#6D28D9" stroke-width="2.2" stroke-linejoin="round"/>
  <rect x="64" y="32" width="34" height="4.2" rx="2.1" fill="#F5F3FF"/>
  <rect x="64" y="42" width="26" height="4.2" rx="2.1" fill="#EDE9FE"/>
  <rect x="64" y="52" width="30" height="4.2" rx="2.1" fill="#DDD6FE"/>
</svg>
