<svg width="120" height="90" viewBox="0 0 120 90" fill="none" xmlns="http://www.w3.org/2000/svg">
  <defs>
    <linearGradient id="ln-book" x1="14" y1="10" x2="66" y2="80" gradientUnits="userSpaceOnUse">
      <stop stop-color="#60A5FA"/>
      <stop offset="1" stop-color="#2563EB"/>
    </linearGradient>
    <linearGradient id="ln-chat" x1="62" y1="24" x2="106" y2="62" gradientUnits="userSpaceOnUse">
      <stop stop-color="#FB7185"/>
      <stop offset="1" stop-color="#E11D48"/>
    </linearGradient>
  </defs>

  <rect x="14" y="10" width="48" height="70" rx="10" fill="url(#ln-book)" stroke="#1E3A8A" stroke-width="2.2"/>
  <path d="M50 10V20C50 22.2091 51.7909 24 54 24H62" fill="#93C5FD"/>
  <path d="M50 10V20C50 22.2091 51.7909 24 54 24H62" stroke="#1D4ED8" stroke-width="2.2" stroke-linejoin="round"/>
  <rect x="22" y="31" width="26" height="4.5" rx="2.25" fill="#DBEAFE"/>
  <rect x="22" y="41" width="22" height="4.5" rx="2.25" fill="#BFDBFE"/>
  <path d="M22 56L25.2 59.2L31.2 53.2" stroke="#DCFCE7" stroke-width="2.8" stroke-linecap="round" stroke-linejoin="round"/>

  <path d="M68 24H98C102.418 24 106 27.5817 106 32V50C106 54.4183 102.418 58 98 58H84L78 64V58H68C63.5817 58 60 54.4183 60 50V32C60 27.5817 63.5817 24 68 24Z" fill="url(#ln-chat)" stroke="#BE123C" stroke-width="2.2" stroke-linejoin="round"/>
  <path d="M70 36H92" stroke="#FFE4E6" stroke-width="3" stroke-linecap="round"/>
  <path d="M70 44H86" stroke="#FFE4E6" stroke-width="3" stroke-linecap="round"/>
</svg>
