<svg width="120" height="90" viewBox="0 0 120 90" fill="none" xmlns="http://www.w3.org/2000/svg">
  <defs>
    <linearGradient id="ac-chip" x1="14" y1="24" x2="50" y2="66" gradientUnits="userSpaceOnUse">
      <stop stop-color="#A5B4FC"/>
      <stop offset="1" stop-color="#4F46E5"/>
    </linearGradient>
    <linearGradient id="ac-rubric" x1="58" y1="14" x2="108" y2="76" gradientUnits="userSpaceOnUse">
      <stop stop-color="#E0E7FF"/>
      <stop offset="1" stop-color="#C7D2FE"/>
    </linearGradient>
  </defs>

  <rect x="14" y="26" width="34" height="32" rx="9" fill="url(#ac-chip)" stroke="#3730A3" stroke-width="2.2"/>
  <line x1="31" y1="20" x2="31" y2="26" stroke="#4338CA" stroke-width="2.2" stroke-linecap="round"/>
  <circle cx="31" cy="18" r="2.6" fill="#F59E0B" stroke="#B45309" stroke-width="1.8"/>
  <circle cx="25" cy="39" r="3.5" fill="#22D3EE"/>
  <circle cx="37" cy="39" r="3.5" fill="#22D3EE"/>
  <rect x="24" y="47" width="14" height="4" rx="2" fill="#E0E7FF"/>
  <line x1="14" y1="36" x2="9" y2="36" stroke="#4338CA" stroke-width="2.2" stroke-linecap="round"/>
  <line x1="48" y1="36" x2="53" y2="36" stroke="#4338CA" stroke-width="2.2" stroke-linecap="round"/>

  <rect x="58" y="14" width="50" height="62" rx="10" fill="url(#ac-rubric)" stroke="#6366F1" stroke-width="2.2"/>
  <path d="M58 32H108" stroke="#818CF8" stroke-width="2.2"/>
  <path d="M58 48H108" stroke="#818CF8" stroke-width="2.2"/>
  <path d="M76 14V76" stroke="#818CF8" stroke-width="2.2"/>

  <circle cx="67" cy="40" r="4" fill="#DCFCE7" stroke="#15803D" stroke-width="2"/>
  <path d="M65.2 40L66.6 41.4L69.3 38.7" stroke="#15803D" stroke-width="2" stroke-linecap="round" stroke-linejoin="round"/>
  <circle cx="67" cy="56" r="4" fill="#DBEAFE" stroke="#2563EB" stroke-width="2"/>
  <path d="M65.2 56L66.6 57.4L69.3 54.7" stroke="#2563EB" stroke-width="2" stroke-linecap="round" stroke-linejoin="round"/>
  <rect x="83" y="37" width="18" height="4" rx="2" fill="#A5B4FC"/>
  <rect x="83" y="53" width="14" height="4" rx="2" fill="#A5B4FC"/>
</svg>
