<svg width="160" height="120" viewBox="0 0 160 120" fill="none" xmlns="http://www.w3.org/2000/svg">
  <defs>
    <linearGradient id="boardFill" x1="40" y1="28" x2="120" y2="88" gradientUnits="userSpaceOnUse">
      <stop stop-color="#4F8CFF"/>
      <stop offset="1" stop-color="#2D63D7"/>
    </linearGradient>
    <linearGradient id="loopTop" x1="32" y1="28" x2="140" y2="44" gradientUnits="userSpaceOnUse">
      <stop stop-color="#7C3AED"/>
      <stop offset="1" stop-color="#6D28D9"/>
    </linearGradient>
    <linearGradient id="loopBottom" x1="20" y1="74" x2="128" y2="88" gradientUnits="userSpaceOnUse">
      <stop stop-color="#0D9488"/>
      <stop offset="1" stop-color="#0F766E"/>
    </linearGradient>
    <filter id="boardShadow" x="24" y="16" width="112" height="88" filterUnits="userSpaceOnUse" color-interpolation-filters="sRGB">
      <feFlood flood-opacity="0" result="BackgroundImageFix"/>
      <feColorMatrix in="SourceAlpha" type="matrix" values="0 0 0 0 0 0 0 0 0 0 0 0 0 0 0 0 0 0 127 0" result="hardAlpha"/>
      <feOffset dy="5"/>
      <feGaussianBlur stdDeviation="4"/>
      <feComposite in2="hardAlpha" operator="out"/>
      <feColorMatrix type="matrix" values="0 0 0 0 0.117647 0 0 0 0 0.172549 0 0 0 0 0.341176 0 0 0 0.2 0"/>
      <feBlend mode="normal" in2="BackgroundImageFix" result="effect1_dropShadow_1_1"/>
      <feBlend mode="normal" in="SourceGraphic" in2="effect1_dropShadow_1_1" result="shape"/>
    </filter>
  </defs>

  <g transform="translate(8 6) scale(0.9)">
    <path d="M30 32C51 17 90 16 118 28C127 32 135 39 139 47" stroke="url(#loopTop)" stroke-width="7.5" stroke-linecap="round" stroke-linejoin="round"/>
    <path d="M151 55L127 48L139 26Z" fill="#6D28D9"/>
  </g>

  <g transform="translate(8 6) scale(0.9)">
    <path d="M130 88C109 103 70 104 42 92C33 88 25 81 21 73" stroke="url(#loopBottom)" stroke-width="7.5" stroke-linecap="round" stroke-linejoin="round"/>
    <path d="M9 65L33 72L21 94Z" fill="#0F766E"/>
  </g>

  <g transform="translate(8 6) scale(0.9)">
    <g filter="url(#boardShadow)">
      <rect x="45" y="30" width="70" height="50" rx="12" fill="url(#boardFill)" stroke="#1E3A8A" stroke-width="2.5"/>
    </g>

    <path d="M56 68H104" stroke="#93C5FD" stroke-width="2.8" stroke-linecap="round"/>
    <path d="M59 62L71 53L82 57L93 48L103 51" stroke="#F8FAFF" stroke-width="4" stroke-linecap="round" stroke-linejoin="round"/>
  </g>
</svg>
